<?xml version="1.0" encoding="utf-8"?>
<!-- Generator: Adobe Illustrator 18.1.1, SVG Export Plug-In . SVG Version: 6.00 Build 0)  -->
<svg version="1.1" id="Layer_1" xmlns="http://www.w3.org/2000/svg" xmlns:xlink="http://www.w3.org/1999/xlink" x="0px" y="0px"
	 viewBox="0 0 200 200" enable-background="new 0 0 200 200" xml:space="preserve">
<path fill="none" stroke="#C9C9C9" stroke-miterlimit="10" d="M99.8,3.9C73.4,3.9,49.6,14.6,32.3,31.8"/>
<path fill="none" stroke="#C9C9C9" stroke-miterlimit="10" d="M168.6,32.6C151.2,14.9,127,3.9,100.2,3.9"/>
<path fill="none" stroke="#C9C9C9" stroke-miterlimit="10" d="M196.1,99.5C196,73.7,185.7,50.3,169,33.1"/>
<path fill="none" stroke="#C9C9C9" stroke-miterlimit="10" d="M168.4,167.5c17-17.3,27.6-41,27.7-67.1"/>
<path fill="none" stroke="#C9C9C9" stroke-miterlimit="10" d="M100.4,196.1c26.4-0.1,50.3-10.9,67.6-28.2"/>
<path fill="none" stroke="#C9C9C9" stroke-miterlimit="10" d="M32.8,168.7c17.2,16.9,40.8,27.3,66.8,27.4"/>
<path fill="none" stroke="#FFFFFF" stroke-miterlimit="10" d="M99.8,3.8C73.4,3.8,49.6,14.5,32.3,31.7"/>
<path fill="none" stroke="#FFFFFF" stroke-miterlimit="10" d="M168.6,32.5C151.2,14.8,127,3.8,100.2,3.8"/>
<path fill="none" stroke="#FFFFFF" stroke-miterlimit="10" d="M196.1,99.4C196,73.6,185.7,50.1,169,32.9"/>
<path fill="none" stroke="#FFFFFF" stroke-miterlimit="10" d="M168.4,167.4c17-17.3,27.6-41,27.7-67.1"/>
<path fill="none" stroke="#FFFFFF" stroke-miterlimit="10" d="M100.4,196c26.4-0.1,50.3-10.9,67.6-28.2"/>
<path fill="none" stroke="#FFFFFF" stroke-miterlimit="10" d="M32.8,168.6c17.2,16.9,40.8,27.3,66.8,27.4"/>
<g>
	<circle fill="#C9C9C9" cx="31.8" cy="31.3" r="3.1"/>
	<circle fill="#C9C9C9" cx="100.5" cy="3.4" r="3.1"/>
	<circle fill="#C9C9C9" cx="167.9" cy="32.4" r="3.1"/>
	<circle fill="#C9C9C9" cx="195.6" cy="99.5" r="3.1"/>
	<circle fill="#C9C9C9" cx="168" cy="167" r="3.1"/>
	<circle fill="#C9C9C9" cx="100.5" cy="195.6" r="3.1"/>
	<circle fill="#C9C9C9" cx="32.3" cy="168.3" r="3.1"/>
</g>
<g>
	<circle fill="#44ABE0" stroke="#FFFFFF" stroke-miterlimit="10" cx="32.3" cy="31.3" r="3.1"/>
	<circle fill="#44ABE0" stroke="#FFFFFF" stroke-miterlimit="10" cx="101" cy="3.4" r="3.1"/>
	<circle fill="#44ABE0" stroke="#FFFFFF" stroke-miterlimit="10" cx="168.4" cy="32.4" r="3.1"/>
	<circle fill="#44ABE0" stroke="#FFFFFF" stroke-miterlimit="10" cx="196.1" cy="99.5" r="3.1"/>
	<circle fill="#44ABE0" stroke="#FFFFFF" stroke-miterlimit="10" cx="168.5" cy="167" r="3.1"/>
	<circle fill="#44ABE0" stroke="#FFFFFF" stroke-miterlimit="10" cx="101" cy="195.6" r="3.1"/>
	<circle fill="#44ABE0" stroke="#FFFFFF" stroke-miterlimit="10" cx="32.7" cy="168.3" r="3.1"/>
</g>
</svg>
