<?xml version="1.0" encoding="utf-8"?>
<!-- Generator: Adobe Illustrator 18.1.1, SVG Export Plug-In . SVG Version: 6.00 Build 0)  -->
<svg version="1.1" id="Layer_1" xmlns="http://www.w3.org/2000/svg" xmlns:xlink="http://www.w3.org/1999/xlink" x="0px" y="0px"
	 viewBox="0 0 200 200" enable-background="new 0 0 200 200" xml:space="preserve">
<path fill="none" stroke="#C9C9C9" stroke-miterlimit="10" d="M99.9,4C75.5,4,51,13.1,32.3,31.7"/>
<path fill="none" stroke="#C9C9C9" stroke-miterlimit="10" d="M168.6,32.5C149.8,13.4,124.9,3.9,100.1,4"/>
<path fill="none" stroke="#C9C9C9" stroke-miterlimit="10" d="M196.9,99c-0.7-24-10.3-47.7-28.8-65.7"/>
<path fill="none" stroke="#C9C9C9" stroke-miterlimit="10" d="M168.1,167.3c18.5-18.4,28-42.5,28.4-66.8"/>
<path fill="none" stroke="#C9C9C9" stroke-miterlimit="10" d="M100.5,196.2c24.5-0.2,48.9-9.7,67.5-28.4"/>
<path fill="none" stroke="#C9C9C9" stroke-miterlimit="10" d="M32.6,169c18.8,18,43,26.9,67.1,26.7"/>
<path fill="none" stroke="#FFFFFF" stroke-miterlimit="10" d="M99.8,3.9C75.4,3.9,51,13,32.2,31.6"/>
<path fill="none" stroke="#FFFFFF" stroke-miterlimit="10" d="M168.7,32.4C149.8,13.3,125,3.9,100.2,3.9"/>
<path fill="none" stroke="#FFFFFF" stroke-miterlimit="10" d="M197,99.1c-0.7-24-10.4-47.7-28.8-65.8"/>
<path fill="none" stroke="#FFFFFF" stroke-miterlimit="10" d="M168,167.3c18.5-18.4,28-42.5,28.4-66.8"/>
<path fill="none" stroke="#FFFFFF" stroke-miterlimit="10" d="M100.4,196.1c24.5-0.2,48.9-9.7,67.5-28.4"/>
<path fill="none" stroke="#FFFFFF" stroke-miterlimit="10" d="M32.7,169c18.8,18,43,26.9,67.1,26.7"/>
<g>
	<circle fill="#C9C9C9" cx="31.8" cy="31.3" r="3.1"/>
	<circle fill="#C9C9C9" cx="100.5" cy="3.4" r="3.1"/>
	<circle fill="#C9C9C9" cx="167.9" cy="32.4" r="3.1"/>
	<circle fill="#C9C9C9" cx="195.6" cy="99.5" r="3.1"/>
	<circle fill="#C9C9C9" cx="168" cy="167" r="3.1"/>
	<circle fill="#C9C9C9" cx="100.5" cy="195.6" r="3.1"/>
	<circle fill="#C9C9C9" cx="32.3" cy="168.3" r="3.1"/>
</g>
<g>
	<circle fill="#44ABE0" stroke="#FFFFFF" stroke-miterlimit="10" cx="32.3" cy="31.3" r="3.1"/>
	<circle fill="#44ABE0" stroke="#FFFFFF" stroke-miterlimit="10" cx="101" cy="3.4" r="3.1"/>
	<circle fill="#44ABE0" stroke="#FFFFFF" stroke-miterlimit="10" cx="168.4" cy="32.4" r="3.1"/>
	<circle fill="#44ABE0" stroke="#FFFFFF" stroke-miterlimit="10" cx="196.1" cy="99.5" r="3.1"/>
	<circle fill="#44ABE0" stroke="#FFFFFF" stroke-miterlimit="10" cx="168.5" cy="167" r="3.1"/>
	<circle fill="#44ABE0" stroke="#FFFFFF" stroke-miterlimit="10" cx="101" cy="195.6" r="3.1"/>
	<circle fill="#44ABE0" stroke="#FFFFFF" stroke-miterlimit="10" cx="32.7" cy="168.3" r="3.1"/>
</g>
</svg>
